<svg width="547" height="157" viewBox="0 0 547 157" fill="none" xmlns="http://www.w3.org/2000/svg">
<path d="M50.1989 68.648C45.3029 68.648 41.0069 67.592 37.3109 65.48C33.6629 63.368 30.8549 60.344 28.8869 56.408C26.9189 52.472 25.9349 47.864 25.9349 42.584C25.9349 37.304 26.9189 32.72 28.8869 28.832C30.8549 24.896 33.6629 21.872 37.3109 19.76C41.0069 17.648 45.3029 16.592 50.1989 16.592C53.3669 16.592 56.3429 17.072 59.1269 18.032C61.9109 18.944 64.3829 20.288 66.5429 22.064C67.1669 22.544 67.5989 23.048 67.8389 23.576C68.0789 24.104 68.1989 24.752 68.1989 25.52C68.1989 26.576 67.9109 27.464 67.3349 28.184C66.7589 28.904 66.0629 29.264 65.2469 29.264C64.2869 29.264 63.3029 28.928 62.2949 28.256C60.2309 26.72 58.3109 25.664 56.5349 25.088C54.7589 24.464 52.7909 24.152 50.6309 24.152C45.6389 24.152 41.8469 25.712 39.2549 28.832C36.7109 31.952 35.4389 36.536 35.4389 42.584C35.4389 48.68 36.7109 53.288 39.2549 56.408C41.8469 59.528 45.6389 61.088 50.6309 61.088C52.6949 61.088 54.5909 60.776 56.3189 60.152C58.0949 59.528 60.0869 58.472 62.2949 56.984C62.7749 56.696 63.2549 56.456 63.7349 56.264C64.2149 56.072 64.7189 55.976 65.2469 55.976C66.0629 55.976 66.7589 56.336 67.3349 57.056C67.9109 57.776 68.1989 58.664 68.1989 59.72C68.1989 60.44 68.0789 61.088 67.8389 61.664C67.5989 62.192 67.1669 62.696 66.5429 63.176C64.3829 64.952 61.9109 66.32 59.1269 67.28C56.3429 68.192 53.3669 68.648 50.1989 68.648ZM80.7798 68C79.3878 68 78.2838 67.616 77.4678 66.848C76.6998 66.08 76.3158 65 76.3158 63.608V21.632C76.3158 20.24 76.6998 19.16 77.4678 18.392C78.2838 17.624 79.3878 17.24 80.7798 17.24H106.772C108.164 17.24 109.244 17.552 110.012 18.176C110.78 18.8 111.164 19.688 111.164 20.84C111.164 22.04 110.78 22.976 110.012 23.648C109.244 24.272 108.164 24.584 106.772 24.584H85.3878V38.552H105.332C106.724 38.552 107.804 38.864 108.572 39.488C109.34 40.112 109.724 41.024 109.724 42.224C109.724 43.376 109.34 44.264 108.572 44.888C107.804 45.512 106.724 45.824 105.332 45.824H85.3878V60.656H106.772C108.164 60.656 109.244 60.992 110.012 61.664C110.78 62.288 111.164 63.2 111.164 64.4C111.164 65.552 110.78 66.44 110.012 67.064C109.244 67.688 108.164 68 106.772 68H80.7798ZM159.322 62.168C159.898 63.032 160.186 63.872 160.186 64.688C160.186 65.792 159.73 66.704 158.818 67.424C157.954 68.144 156.922 68.504 155.722 68.504C154.954 68.504 154.21 68.336 153.49 68C152.818 67.616 152.242 67.064 151.762 66.344L142.186 51.8C141.226 50.264 140.194 49.184 139.09 48.56C138.034 47.936 136.642 47.624 134.914 47.624H127.858V63.752C127.858 65.192 127.45 66.344 126.634 67.208C125.818 68.024 124.714 68.432 123.322 68.432C121.93 68.432 120.802 68.024 119.938 67.208C119.122 66.344 118.714 65.192 118.714 63.752V21.632C118.714 20.24 119.098 19.16 119.866 18.392C120.682 17.624 121.786 17.24 123.178 17.24H141.178C146.938 17.24 151.306 18.536 154.282 21.128C157.306 23.672 158.818 27.368 158.818 32.216C158.818 36.152 157.69 39.392 155.434 41.936C153.226 44.432 150.082 46.04 146.002 46.76C147.394 47.096 148.618 47.696 149.674 48.56C150.73 49.424 151.762 50.624 152.77 52.16L159.322 62.168ZM139.882 40.496C143.386 40.496 145.954 39.848 147.586 38.552C149.218 37.208 150.034 35.168 150.034 32.432C150.034 29.648 149.218 27.632 147.586 26.384C145.954 25.088 143.386 24.44 139.882 24.44H127.786V40.496H139.882ZM184.002 68.36C182.562 68.36 181.41 67.952 180.546 67.136C179.73 66.272 179.322 65.144 179.322 63.752V24.872H166.218C163.338 24.872 161.898 23.6 161.898 21.056C161.898 18.512 163.338 17.24 166.218 17.24H201.714C204.594 17.24 206.034 18.512 206.034 21.056C206.034 23.6 204.594 24.872 201.714 24.872H188.61V63.752C188.61 65.144 188.178 66.272 187.314 67.136C186.498 67.952 185.394 68.36 184.002 68.36ZM216.135 68.432C214.743 68.432 213.615 68 212.751 67.136C211.935 66.272 211.527 65.144 211.527 63.752V21.488C211.527 20.096 211.935 18.992 212.751 18.176C213.615 17.312 214.743 16.88 216.135 16.88C217.575 16.88 218.703 17.312 219.519 18.176C220.383 18.992 220.815 20.096 220.815 21.488V63.752C220.815 65.144 220.383 66.272 219.519 67.136C218.703 68 217.575 68.432 216.135 68.432ZM236.385 68.432C234.993 68.432 233.865 68 233.001 67.136C232.185 66.272 231.777 65.144 231.777 63.752V21.632C231.777 20.24 232.161 19.16 232.929 18.392C233.745 17.624 234.849 17.24 236.241 17.24H261.513C264.441 17.24 265.905 18.488 265.905 20.984C265.905 23.432 264.441 24.656 261.513 24.656H240.921V38.48H260.073C263.001 38.48 264.465 39.728 264.465 42.224C264.465 44.672 263.001 45.896 260.073 45.896H240.921V63.752C240.921 65.144 240.513 66.272 239.697 67.136C238.881 68 237.777 68.432 236.385 68.432ZM277.166 68.432C275.774 68.432 274.646 68 273.782 67.136C272.966 66.272 272.558 65.144 272.558 63.752V21.488C272.558 20.096 272.966 18.992 273.782 18.176C274.646 17.312 275.774 16.88 277.166 16.88C278.606 16.88 279.734 17.312 280.55 18.176C281.414 18.992 281.846 20.096 281.846 21.488V63.752C281.846 65.144 281.414 66.272 280.55 67.136C279.734 68 278.606 68.432 277.166 68.432ZM315.488 68.648C310.592 68.648 306.296 67.592 302.6 65.48C298.952 63.368 296.144 60.344 294.176 56.408C292.208 52.472 291.224 47.864 291.224 42.584C291.224 37.304 292.208 32.72 294.176 28.832C296.144 24.896 298.952 21.872 302.6 19.76C306.296 17.648 310.592 16.592 315.488 16.592C318.656 16.592 321.632 17.072 324.416 18.032C327.2 18.944 329.672 20.288 331.832 22.064C332.456 22.544 332.888 23.048 333.128 23.576C333.368 24.104 333.488 24.752 333.488 25.52C333.488 26.576 333.2 27.464 332.624 28.184C332.048 28.904 331.352 29.264 330.536 29.264C329.576 29.264 328.592 28.928 327.584 28.256C325.52 26.72 323.6 25.664 321.824 25.088C320.048 24.464 318.08 24.152 315.92 24.152C310.928 24.152 307.136 25.712 304.544 28.832C302 31.952 300.728 36.536 300.728 42.584C300.728 48.68 302 53.288 304.544 56.408C307.136 59.528 310.928 61.088 315.92 61.088C317.984 61.088 319.88 60.776 321.608 60.152C323.384 59.528 325.376 58.472 327.584 56.984C328.064 56.696 328.544 56.456 329.024 56.264C329.504 56.072 330.008 55.976 330.536 55.976C331.352 55.976 332.048 56.336 332.624 57.056C333.2 57.776 333.488 58.664 333.488 59.72C333.488 60.44 333.368 61.088 333.128 61.664C332.888 62.192 332.456 62.696 331.832 63.176C329.672 64.952 327.2 66.32 324.416 67.28C321.632 68.192 318.656 68.648 315.488 68.648ZM386.699 62.456C386.987 63.08 387.131 63.704 387.131 64.328C387.131 65.432 386.675 66.368 385.763 67.136C384.899 67.904 383.891 68.288 382.739 68.288C381.971 68.288 381.251 68.096 380.579 67.712C379.907 67.28 379.379 66.632 378.995 65.768L374.675 56.12H349.331L345.011 65.768C344.627 66.632 344.099 67.28 343.427 67.712C342.755 68.096 342.011 68.288 341.195 68.288C340.091 68.288 339.083 67.904 338.171 67.136C337.259 66.368 336.803 65.432 336.803 64.328C336.803 63.704 336.947 63.08 337.235 62.456L357.107 19.76C357.539 18.8 358.187 18.08 359.051 17.6C359.963 17.072 360.923 16.808 361.931 16.808C362.939 16.808 363.875 17.072 364.739 17.6C365.651 18.08 366.323 18.8 366.755 19.76L386.699 62.456ZM352.499 48.92H371.507L362.003 27.536L352.499 48.92ZM404.502 68.36C403.062 68.36 401.91 67.952 401.046 67.136C400.23 66.272 399.822 65.144 399.822 63.752V24.872H386.718C383.838 24.872 382.398 23.6 382.398 21.056C382.398 18.512 383.838 17.24 386.718 17.24H422.214C425.094 17.24 426.534 18.512 426.534 21.056C426.534 23.6 425.094 24.872 422.214 24.872H409.11V63.752C409.11 65.144 408.678 66.272 407.814 67.136C406.998 67.952 405.894 68.36 404.502 68.36ZM436.491 68C435.099 68 433.995 67.616 433.179 66.848C432.411 66.08 432.027 65 432.027 63.608V21.632C432.027 20.24 432.411 19.16 433.179 18.392C433.995 17.624 435.099 17.24 436.491 17.24H462.483C463.875 17.24 464.955 17.552 465.723 18.176C466.491 18.8 466.875 19.688 466.875 20.84C466.875 22.04 466.491 22.976 465.723 23.648C464.955 24.272 463.875 24.584 462.483 24.584H441.099V38.552H461.043C462.435 38.552 463.515 38.864 464.283 39.488C465.051 40.112 465.435 41.024 465.435 42.224C465.435 43.376 465.051 44.264 464.283 44.888C463.515 45.512 462.435 45.824 461.043 45.824H441.099V60.656H462.483C463.875 60.656 464.955 60.992 465.723 61.664C466.491 62.288 466.875 63.2 466.875 64.4C466.875 65.552 466.491 66.44 465.723 67.064C464.955 67.688 463.875 68 462.483 68H436.491Z" fill="#4C837A"/>
<path d="M127.949 108.568C129.053 108.568 129.941 108.904 130.613 109.576C131.285 110.2 131.621 111.04 131.621 112.096V127.576C131.621 129.784 131.333 131.344 130.757 132.256C130.181 133.168 129.005 133.912 127.229 134.488C125.309 135.16 123.077 135.688 120.533 136.072C117.989 136.456 115.541 136.648 113.189 136.648C107.957 136.648 103.421 135.616 99.5805 133.552C95.7405 131.488 92.7885 128.512 90.7245 124.624C88.7085 120.688 87.7005 116.008 87.7005 110.584C87.7005 105.256 88.7085 100.648 90.7245 96.76C92.7885 92.824 95.6925 89.824 99.4365 87.76C103.181 85.648 107.597 84.592 112.685 84.592C119.453 84.592 124.997 86.416 129.317 90.064C129.893 90.592 130.301 91.12 130.541 91.648C130.829 92.176 130.973 92.8 130.973 93.52C130.973 94.576 130.685 95.464 130.109 96.184C129.533 96.904 128.837 97.264 128.021 97.264C127.493 97.264 127.013 97.192 126.581 97.048C126.149 96.856 125.645 96.568 125.069 96.184C122.957 94.696 120.989 93.664 119.165 93.088C117.341 92.464 115.277 92.152 112.973 92.152C107.741 92.152 103.781 93.712 101.093 96.832C98.4525 99.904 97.1325 104.488 97.1325 110.584C97.1325 123.064 102.605 129.304 113.549 129.304C116.813 129.304 120.077 128.848 123.341 127.936V115.192H115.205C114.053 115.192 113.141 114.904 112.469 114.328C111.845 113.752 111.533 112.936 111.533 111.88C111.533 110.824 111.845 110.008 112.469 109.432C113.141 108.856 114.053 108.568 115.205 108.568H127.949ZM146.553 136C145.161 136 144.057 135.616 143.241 134.848C142.473 134.08 142.089 133 142.089 131.608V89.632C142.089 88.24 142.473 87.16 143.241 86.392C144.057 85.624 145.161 85.24 146.553 85.24H172.545C173.937 85.24 175.017 85.552 175.785 86.176C176.553 86.8 176.937 87.688 176.937 88.84C176.937 90.04 176.553 90.976 175.785 91.648C175.017 92.272 173.937 92.584 172.545 92.584H151.161V106.552H171.105C172.497 106.552 173.577 106.864 174.345 107.488C175.113 108.112 175.497 109.024 175.497 110.224C175.497 111.376 175.113 112.264 174.345 112.888C173.577 113.512 172.497 113.824 171.105 113.824H151.161V128.656H172.545C173.937 128.656 175.017 128.992 175.785 129.664C176.553 130.288 176.937 131.2 176.937 132.4C176.937 133.552 176.553 134.44 175.785 135.064C175.017 135.688 173.937 136 172.545 136H146.553ZM222.936 84.88C224.28 84.88 225.336 85.312 226.104 86.176C226.92 86.992 227.328 88.096 227.328 89.488V131.752C227.328 133.144 226.92 134.272 226.104 135.136C225.288 136 224.232 136.432 222.936 136.432C221.4 136.432 220.224 135.88 219.408 134.776L193.128 100.576V131.752C193.128 133.144 192.744 134.272 191.976 135.136C191.208 136 190.152 136.432 188.808 136.432C187.464 136.432 186.408 136 185.64 135.136C184.872 134.272 184.488 133.144 184.488 131.752V89.488C184.488 88.096 184.896 86.992 185.712 86.176C186.528 85.312 187.608 84.88 188.952 84.88C190.44 84.88 191.592 85.432 192.408 86.536L218.616 120.592V89.488C218.616 88.096 219 86.992 219.768 86.176C220.584 85.312 221.64 84.88 222.936 84.88ZM242.741 136C241.349 136 240.245 135.616 239.429 134.848C238.661 134.08 238.277 133 238.277 131.608V89.632C238.277 88.24 238.661 87.16 239.429 86.392C240.245 85.624 241.349 85.24 242.741 85.24H268.733C270.125 85.24 271.205 85.552 271.973 86.176C272.741 86.8 273.125 87.688 273.125 88.84C273.125 90.04 272.741 90.976 271.973 91.648C271.205 92.272 270.125 92.584 268.733 92.584H247.349V106.552H267.293C268.685 106.552 269.765 106.864 270.533 107.488C271.301 108.112 271.685 109.024 271.685 110.224C271.685 111.376 271.301 112.264 270.533 112.888C269.765 113.512 268.685 113.824 267.293 113.824H247.349V128.656H268.733C270.125 128.656 271.205 128.992 271.973 129.664C272.741 130.288 273.125 131.2 273.125 132.4C273.125 133.552 272.741 134.44 271.973 135.064C271.205 135.688 270.125 136 268.733 136H242.741ZM321.283 130.168C321.859 131.032 322.147 131.872 322.147 132.688C322.147 133.792 321.691 134.704 320.779 135.424C319.915 136.144 318.883 136.504 317.683 136.504C316.915 136.504 316.171 136.336 315.451 136C314.779 135.616 314.203 135.064 313.723 134.344L304.147 119.8C303.187 118.264 302.155 117.184 301.051 116.56C299.995 115.936 298.603 115.624 296.875 115.624H289.819V131.752C289.819 133.192 289.411 134.344 288.595 135.208C287.779 136.024 286.675 136.432 285.283 136.432C283.891 136.432 282.763 136.024 281.899 135.208C281.083 134.344 280.675 133.192 280.675 131.752V89.632C280.675 88.24 281.059 87.16 281.827 86.392C282.643 85.624 283.747 85.24 285.139 85.24H303.139C308.899 85.24 313.267 86.536 316.243 89.128C319.267 91.672 320.779 95.368 320.779 100.216C320.779 104.152 319.651 107.392 317.395 109.936C315.187 112.432 312.043 114.04 307.963 114.76C309.355 115.096 310.579 115.696 311.635 116.56C312.691 117.424 313.723 118.624 314.731 120.16L321.283 130.168ZM301.843 108.496C305.347 108.496 307.915 107.848 309.547 106.552C311.179 105.208 311.995 103.168 311.995 100.432C311.995 97.648 311.179 95.632 309.547 94.384C307.915 93.088 305.347 92.44 301.843 92.44H289.747V108.496H301.843ZM376.183 130.456C376.471 131.08 376.615 131.704 376.615 132.328C376.615 133.432 376.159 134.368 375.247 135.136C374.383 135.904 373.375 136.288 372.223 136.288C371.455 136.288 370.735 136.096 370.063 135.712C369.391 135.28 368.863 134.632 368.479 133.768L364.159 124.12H338.815L334.495 133.768C334.111 134.632 333.583 135.28 332.911 135.712C332.239 136.096 331.495 136.288 330.679 136.288C329.575 136.288 328.567 135.904 327.655 135.136C326.743 134.368 326.287 133.432 326.287 132.328C326.287 131.704 326.431 131.08 326.719 130.456L346.591 87.76C347.023 86.8 347.671 86.08 348.535 85.6C349.447 85.072 350.407 84.808 351.415 84.808C352.423 84.808 353.359 85.072 354.223 85.6C355.135 86.08 355.807 86.8 356.239 87.76L376.183 130.456ZM341.983 116.92H360.991L351.487 95.536L341.983 116.92ZM393.987 136.36C392.547 136.36 391.395 135.952 390.531 135.136C389.715 134.272 389.307 133.144 389.307 131.752V92.872H376.203C373.323 92.872 371.883 91.6 371.883 89.056C371.883 86.512 373.323 85.24 376.203 85.24H411.699C414.579 85.24 416.019 86.512 416.019 89.056C416.019 91.6 414.579 92.872 411.699 92.872H398.595V131.752C398.595 133.144 398.163 134.272 397.299 135.136C396.483 135.952 395.379 136.36 393.987 136.36ZM441.096 136.648C436.152 136.648 431.856 135.592 428.208 133.48C424.608 131.368 421.824 128.344 419.856 124.408C417.888 120.472 416.904 115.864 416.904 110.584C416.904 105.304 417.864 100.72 419.784 96.832C421.752 92.896 424.56 89.872 428.208 87.76C431.856 85.648 436.152 84.592 441.096 84.592C446.04 84.592 450.312 85.648 453.912 87.76C457.56 89.872 460.344 92.896 462.264 96.832C464.232 100.72 465.216 105.304 465.216 110.584C465.216 115.864 464.232 120.472 462.264 124.408C460.296 128.344 457.488 131.368 453.84 133.48C450.24 135.592 445.992 136.648 441.096 136.648ZM441.096 129.232C445.752 129.232 449.376 127.624 451.968 124.408C454.608 121.192 455.928 116.584 455.928 110.584C455.928 104.584 454.608 100 451.968 96.832C449.376 93.616 445.752 92.008 441.096 92.008C436.392 92.008 432.72 93.616 430.08 96.832C427.488 100 426.192 104.584 426.192 110.584C426.192 116.584 427.488 121.192 430.08 124.408C432.72 127.624 436.392 129.232 441.096 129.232ZM515.205 130.168C515.781 131.032 516.069 131.872 516.069 132.688C516.069 133.792 515.613 134.704 514.701 135.424C513.837 136.144 512.805 136.504 511.605 136.504C510.837 136.504 510.093 136.336 509.373 136C508.701 135.616 508.125 135.064 507.645 134.344L498.069 119.8C497.109 118.264 496.077 117.184 494.973 116.56C493.917 115.936 492.525 115.624 490.797 115.624H483.741V131.752C483.741 133.192 483.333 134.344 482.517 135.208C481.701 136.024 480.597 136.432 479.205 136.432C477.813 136.432 476.685 136.024 475.821 135.208C475.005 134.344 474.597 133.192 474.597 131.752V89.632C474.597 88.24 474.981 87.16 475.749 86.392C476.565 85.624 477.669 85.24 479.061 85.24H497.061C502.821 85.24 507.189 86.536 510.165 89.128C513.189 91.672 514.701 95.368 514.701 100.216C514.701 104.152 513.573 107.392 511.317 109.936C509.109 112.432 505.965 114.04 501.885 114.76C503.277 115.096 504.501 115.696 505.557 116.56C506.613 117.424 507.645 118.624 508.653 120.16L515.205 130.168ZM495.765 108.496C499.269 108.496 501.837 107.848 503.469 106.552C505.101 105.208 505.917 103.168 505.917 100.432C505.917 97.648 505.101 95.632 503.469 94.384C501.837 93.088 499.269 92.44 495.765 92.44H483.669V108.496H495.765Z" fill="#04253A"/>
</svg>
